<svg width="2297" height="690" viewBox="0 0 2297 690" fill="none" xmlns="http://www.w3.org/2000/svg">
<path d="M98.1931 465.494C98.1931 517.015 116.377 583.901 222.753 583.901C252.756 583.901 276.395 578.478 293.67 573.959V502.553C280.032 507.072 263.667 509.784 249.12 509.784C200.932 509.784 190.022 482.668 190.022 452.84V197.044H98.1931V122.927H190.022V0H105.467V55.1362C105.467 103.945 85.4644 122.927 31.8218 122.927H0V197.044H98.1931V465.494Z" fill="#EFE6E1"/>
<path fill-rule="evenodd" clip-rule="evenodd" d="M299.168 348.895C299.168 484.475 398.27 583.901 531.013 583.901C664.665 583.901 764.676 485.379 764.676 348.895C764.676 212.41 664.665 113.888 531.013 113.888C397.361 113.888 299.168 211.506 299.168 348.895ZM672.847 348.895C672.847 432.955 615.568 503.457 531.013 503.457C446.458 503.457 390.997 432.955 390.997 348.895C390.997 263.931 446.458 194.333 531.013 194.333C615.568 194.333 672.847 263.931 672.847 348.895Z" fill="#EFE6E1"/>
<path d="M980.475 583.901C874.099 583.901 855.915 517.015 855.915 465.494V197.044H947.744V452.84C947.744 482.668 958.654 509.784 1006.84 509.784C1021.39 509.784 1037.75 507.072 1051.39 502.553V573.959C1034.12 578.478 1010.48 583.901 980.475 583.901Z" fill="#EFE6E1"/>
<path d="M855.915 197.044H757.722V122.927H789.544C843.186 122.927 863.189 103.945 863.189 55.1362V0H947.744V122.927H855.915V197.044Z" fill="#EFE6E1"/>
<path fill-rule="evenodd" clip-rule="evenodd" d="M1484.74 365.823L1484.74 365.817C1485.44 357.124 1486.03 349.846 1486.03 342.568C1486.03 187.102 1388.75 113.888 1277.82 113.888C1154.17 113.888 1056.89 206.083 1056.89 353.414C1056.89 492.61 1150.54 583.901 1281.46 583.901C1388.75 583.901 1465.12 529.669 1484.21 439.282H1395.11C1380.56 485.379 1338.74 508.88 1281.46 508.88C1201.45 508.88 1152.36 452.84 1147.81 372.395H1484.21C1484.39 370.109 1484.57 367.925 1484.74 365.823ZM1148.72 307.317C1157.81 241.334 1206 188.909 1277.82 188.909C1347.83 188.909 1395.11 237.718 1396.02 307.317H1148.72Z" fill="#EFE6E1"/>
<path d="M1537.11 574.838V122.902H1629.85V176.23H1636.21C1659.85 142.787 1697.13 113.863 1759.86 113.863C1833.51 113.863 1867.15 157.249 1881.7 190.692H1888.06C1910.79 152.729 1950.8 113.863 2028.99 113.863C2118.09 113.863 2179.91 167.191 2179.91 274.752L2179.91 504.768H2087.17V292.83C2087.17 225.039 2047.17 194.307 1999.89 194.307C1943.52 194.307 1904.43 237.693 1904.43 302.772V574.838H1811.69V297.349C1811.69 228.655 1772.59 194.307 1724.41 194.307C1678.95 194.307 1629.85 227.751 1629.85 300.964V574.838H1537.11Z" fill="#EFE6E1"/>
<path d="M2296.98 505.342H2181.07V575.766H2088.17V689.02H2181.08V636.856C2181.08 590.679 2203.06 572.721 2262.01 572.721H2296.98V505.342Z" fill="#EFE6E1"/>
</svg>
