<svg width="900" height="395" viewBox="0 0 900 395" fill="none" xmlns="http://www.w3.org/2000/svg">
<path d="M208.136 154.969C179.895 154.969 175.068 137.217 175.068 123.543L175.068 52.2959L149 52.2959L149 32.625L157.448 32.625C171.689 32.625 176.999 27.5873 176.999 14.6333L176.999 2.44774e-06L199.446 4.41016e-06L199.446 32.625L175.068 32.625L175.068 52.2959L199.446 52.2959L199.446 120.185C199.446 128.101 202.343 135.298 215.135 135.298C218.997 135.298 223.342 134.578 226.963 133.379L226.963 152.33C222.376 153.529 216.101 154.969 208.136 154.969Z" fill="white"/>
<path d="M289.971 154.969C254.731 154.969 228.422 128.581 228.422 92.5974C228.422 56.1342 254.49 30.2261 289.971 30.2261C325.453 30.2261 352.004 56.3741 352.004 92.5974C352.004 128.821 325.453 154.969 289.971 154.969ZM289.971 133.619C312.419 133.619 327.625 114.907 327.625 92.5974C327.625 70.0478 312.419 51.5763 289.971 51.5763C267.524 51.5763 252.8 70.0478 252.8 92.5974C252.8 114.907 267.524 133.619 289.971 133.619Z" fill="white"/>
<path d="M409.293 154.969C381.053 154.969 376.225 137.217 376.225 123.543L376.225 52.296L350.157 52.296L350.157 32.625L358.605 32.625C372.846 32.625 378.156 27.5873 378.156 14.6333L378.156 2.00335e-05L400.604 2.19959e-05L400.604 32.625L376.225 32.625L376.225 52.296L400.604 52.296L400.604 120.185C400.604 128.101 403.5 135.298 416.293 135.298C420.155 135.298 424.499 134.578 428.12 133.379L428.12 152.33C423.534 153.529 417.258 154.969 409.293 154.969Z" fill="white"/>
<path d="M543.506 90.9182C543.506 93.3171 543.265 95.716 543.023 98.8345L453.716 98.8345C454.923 120.185 467.957 135.058 489.198 135.058C504.404 135.058 515.507 128.821 519.369 116.586L543.023 116.586C537.955 140.575 517.68 154.969 489.198 154.969C454.441 154.969 429.579 130.74 429.579 93.7969C429.579 54.6949 455.406 30.2261 488.232 30.2261C517.68 30.2261 543.506 49.6572 543.506 90.9182ZM488.232 50.137C469.164 50.137 456.372 64.0505 453.958 81.5625L519.61 81.5625C519.369 63.091 506.818 50.137 488.232 50.137Z" fill="white"/>
<path d="M553.231 152.57L553.231 32.625L575.437 32.625L577.85 46.7785L579.54 46.7785C585.816 37.9026 595.712 30.2261 612.366 30.2261C631.917 30.2261 640.848 41.7408 644.71 50.6168L646.4 50.6168C652.434 40.5414 663.054 30.2261 683.812 30.2261C707.466 30.2261 723.879 44.3796 723.879 72.9265L723.879 125.463L699.26 125.463L699.26 77.7243C699.26 59.7326 688.639 51.5763 676.088 51.5763C661.123 51.5763 650.744 63.091 650.744 80.3631L650.744 152.57L626.124 152.57L626.124 78.9237C626.124 60.6921 615.745 51.5763 602.953 51.5763C590.884 51.5763 577.85 60.4522 577.85 79.8833L577.85 152.57L553.231 152.57Z" fill="white"/>
<path d="M690.864 50.0313C719.105 50.0313 723.932 67.7832 723.932 81.4569L723.932 152.704L750 152.704L750 172.375L741.552 172.375C727.311 172.375 722.001 177.413 722.001 190.367L722.001 205L699.554 205L699.554 172.375L723.932 172.375L723.932 152.704L699.554 152.704L699.554 84.8153C699.554 76.899 714.087 71.0701 701.295 71.0701C697.433 71.0701 709.022 68.5028 705.401 69.7023L693.595 50.089C698.182 48.8896 682.899 50.0313 690.864 50.0313Z" fill="white"/>
<path d="M26.9859 269H32.1459V311H26.5059L10.5459 279.26H10.1859V311H5.02594V269H10.7259L26.6259 300.74H26.9859V269ZM47.2425 306.14H67.4625V311H41.9625V269H66.8625V273.86H47.2425V287.3H64.3425V292.1H47.2425V306.14ZM101.879 269H106.919L101.879 311H95.9991L90.7191 285.44H90.2991L85.0791 311H79.1991L74.0991 269H79.3191L82.5591 300.62H82.9791L87.7191 278H93.3591L97.9791 300.62H98.3991L101.879 269ZM173.232 311L169.812 299.54H155.172L151.752 311H146.052L159.132 269H165.852L178.932 311H173.232ZM156.552 294.86H168.432L162.672 275.66H162.252L156.552 294.86ZM211.909 269V296.96C211.909 306.44 206.569 311.6 198.529 311.6C190.489 311.6 185.029 306.44 185.029 296.96V269H190.489V297.56C190.489 303.5 193.969 306.56 198.529 306.56C203.089 306.56 206.449 303.5 206.449 297.56V269H211.909ZM230.965 269C243.325 269 249.025 277.52 249.025 289.94C249.025 302.24 243.505 311 230.965 311H220.885V269H230.965ZM230.665 306.08C239.005 306.08 243.505 300.62 243.505 289.94C243.505 280.88 240.565 273.92 230.665 273.92H226.345V306.08H230.665ZM273.122 306.14H283.862V311H256.922V306.14H267.722V273.86H257.222V269H283.562V273.86H273.122V306.14ZM306.458 311.6C297.458 311.6 291.578 303.8 291.578 290C291.578 276.5 297.338 268.4 306.458 268.4C315.458 268.4 321.278 276.5 321.278 290C321.278 303.5 315.458 311.6 306.458 311.6ZM306.458 306.56C312.218 306.56 315.818 300.8 315.818 290C315.818 279.2 312.158 273.44 306.458 273.44C300.638 273.44 296.978 279.2 296.978 290C296.978 300.8 300.638 306.56 306.458 306.56ZM343.935 269C351.735 269 356.715 274.1 356.715 281.6C356.715 289.46 351.615 294.38 343.515 294.38H334.095V311H328.875V269H343.935ZM342.675 289.52C348.135 289.52 351.195 286.52 351.195 281.6C351.195 276.68 347.835 273.86 343.035 273.86H334.095V289.52H342.675ZM386.452 269H391.912V311H386.452V292.22H370.252V311H364.792V269H370.252V287.3H386.452V269ZM424.288 269H430.768L417.088 290.18V311H411.688V290.18L397.888 269H404.368L414.148 284.06H414.568L424.288 269ZM463.925 300.08C463.925 307.88 457.925 311.6 450.125 311.6C441.485 311.6 436.205 306.86 435.665 299H441.065C441.725 304.1 444.905 306.86 450.185 306.86C454.565 306.86 458.525 304.94 458.525 300.2C458.525 294.8 453.725 293.24 449.525 291.92L447.965 291.44C443.045 289.82 436.985 287.3 436.985 279.98C436.985 272.9 442.805 268.4 450.365 268.4C458.345 268.4 463.565 273.44 463.925 280.28H458.765C458.285 276.32 455.525 273.14 450.425 273.14C445.625 273.14 442.385 275.96 442.385 279.86C442.385 284.48 446.945 285.74 450.605 286.94L451.985 287.42C456.125 288.8 463.925 291.32 463.925 300.08ZM488.981 306.14H499.721V311H472.781V306.14H483.581V273.86H473.081V269H499.421V273.86H488.981V306.14ZM537.258 298.22C536.118 307.1 530.718 311.6 523.278 311.6C513.138 311.6 507.678 303.44 507.678 290.18C507.678 276.74 513.378 268.4 523.278 268.4C530.478 268.4 535.638 272.6 536.778 282.14H531.198C530.298 276.14 527.538 273.44 523.278 273.44C516.798 273.44 513.198 279.8 513.198 290.18C513.198 300.92 517.038 306.56 523.278 306.56C527.658 306.56 530.598 303.86 531.678 298.22H537.258ZM568.974 311L565.554 299.54H550.914L547.494 311H541.794L554.874 269H561.594L574.674 311H568.974ZM552.294 294.86H564.174L558.414 275.66H557.994L552.294 294.86ZM586.831 306.08H607.411V311H581.251V269H586.831V306.08ZM678.644 273.92H659.864V287.9H676.124V292.7H659.864V311H654.404V269H678.644V273.92ZM702.201 311.6C693.201 311.6 687.321 303.8 687.321 290C687.321 276.5 693.081 268.4 702.201 268.4C711.201 268.4 717.021 276.5 717.021 290C717.021 303.5 711.201 311.6 702.201 311.6ZM702.201 306.56C707.961 306.56 711.561 300.8 711.561 290C711.561 279.2 707.901 273.44 702.201 273.44C696.381 273.44 692.721 279.2 692.721 290C692.721 300.8 696.381 306.56 702.201 306.56ZM753.537 311H747.597L737.217 293.36H729.897V311H724.557V269H738.597C746.637 269 751.677 273.68 751.677 280.88C751.677 286.94 748.197 290.96 742.557 292.46L753.537 311ZM729.897 273.74V288.62H737.817C743.157 288.62 746.217 285.56 746.217 281.12C746.217 276.38 742.977 273.74 737.817 273.74H729.897ZM787.654 269V311H782.734V279.32H782.314L776.674 294.5H771.634L765.874 279.32H765.454V311H760.534V269H766.954L773.914 288.14H774.334L781.294 269H787.654ZM820.81 311L817.39 299.54H802.75L799.33 311H793.63L806.71 269H813.43L826.51 311H820.81ZM804.13 294.86H816.01L810.25 275.66H809.83L804.13 294.86ZM860.927 269V273.92H848.747V311H843.347V273.92H831.167V269H860.927ZM895.643 300.08C895.643 307.88 889.643 311.6 881.843 311.6C873.203 311.6 867.923 306.86 867.383 299H872.783C873.443 304.1 876.623 306.86 881.903 306.86C886.283 306.86 890.243 304.94 890.243 300.2C890.243 294.8 885.443 293.24 881.243 291.92L879.683 291.44C874.763 289.82 868.703 287.3 868.703 279.98C868.703 272.9 874.523 268.4 882.083 268.4C890.063 268.4 895.283 273.44 895.643 280.28H890.483C890.003 276.32 887.243 273.14 882.143 273.14C877.343 273.14 874.103 275.96 874.103 279.86C874.103 284.48 878.663 285.74 882.323 286.94L883.703 287.42C887.843 288.8 895.643 291.32 895.643 300.08ZM103.019 345.92H84.2391V359.9H100.499V364.7H84.2391V383H78.7791V341H103.019V345.92ZM126.576 383.6C117.576 383.6 111.696 375.8 111.696 362C111.696 348.5 117.456 340.4 126.576 340.4C135.576 340.4 141.396 348.5 141.396 362C141.396 375.5 135.576 383.6 126.576 383.6ZM126.576 378.56C132.336 378.56 135.936 372.8 135.936 362C135.936 351.2 132.276 345.44 126.576 345.44C120.756 345.44 117.096 351.2 117.096 362C117.096 372.8 120.756 378.56 126.576 378.56ZM177.912 383H171.972L161.592 365.36H154.272V383H148.932V341H162.972C171.012 341 176.052 345.68 176.052 352.88C176.052 358.94 172.572 362.96 166.932 364.46L177.912 383ZM154.272 345.74V360.62H162.192C167.532 360.62 170.592 357.56 170.592 353.12C170.592 348.38 167.352 345.74 162.192 345.74H154.272ZM248.005 341V383H243.085V351.32H242.665L237.025 366.5H231.985L226.225 351.32H225.805V383H220.885V341H227.305L234.265 360.14H234.685L241.645 341H248.005ZM270.482 383.6C261.482 383.6 255.602 375.8 255.602 362C255.602 348.5 261.362 340.4 270.482 340.4C279.482 340.4 285.302 348.5 285.302 362C285.302 375.5 279.482 383.6 270.482 383.6ZM270.482 378.56C276.242 378.56 279.842 372.8 279.842 362C279.842 351.2 276.182 345.44 270.482 345.44C264.662 345.44 261.002 351.2 261.002 362C261.002 372.8 264.662 378.56 270.482 378.56ZM321.818 383H315.878L305.498 365.36H298.178V383H292.838V341H306.878C314.918 341 319.958 345.68 319.958 352.88C319.958 358.94 316.478 362.96 310.838 364.46L321.818 383ZM298.178 345.74V360.62H306.098C311.438 360.62 314.498 357.56 314.498 353.12C314.498 348.38 311.258 345.74 306.098 345.74H298.178ZM335.055 378.14H355.275V383H329.775V341H354.675V345.86H335.055V359.3H352.155V364.1H335.055V378.14ZM425.068 383L421.648 371.54H407.008L403.588 383H397.888L410.968 341H417.688L430.768 383H425.068ZM408.388 366.86H420.268L414.508 347.66H414.088L408.388 366.86ZM465.305 370.22C464.165 379.1 458.765 383.6 451.325 383.6C441.185 383.6 435.725 375.44 435.725 362.18C435.725 348.74 441.425 340.4 451.325 340.4C458.525 340.4 463.685 344.6 464.825 354.14H459.245C458.345 348.14 455.585 345.44 451.325 345.44C444.845 345.44 441.245 351.8 441.245 362.18C441.245 372.92 445.085 378.56 451.325 378.56C455.705 378.56 458.645 375.86 459.725 370.22H465.305ZM501.161 341V345.92H488.981V383H483.581V345.92H471.401V341H501.161ZM524.958 378.14H535.698V383H508.758V378.14H519.558V345.86H509.058V341H535.398V345.86H524.958V378.14ZM568.794 341H574.674L561.534 383H554.814L541.794 341H547.674L557.994 375.2H558.474L568.794 341ZM586.891 378.14H607.111V383H581.611V341H606.511V345.86H586.891V359.3H603.991V364.1H586.891V378.14ZM678.644 345.92H659.864V359.9H676.124V364.7H659.864V383H654.404V341H678.644V345.92ZM712.881 383L709.461 371.54H694.821L691.401 383H685.701L698.781 341H705.501L718.581 383H712.881ZM696.201 366.86H708.081L702.321 347.66H701.901L696.201 366.86ZM746.517 341H751.677V383H746.037L730.077 351.26H729.717V383H724.557V341H730.257L746.157 372.74H746.517V341ZM770.614 341C782.974 341 788.674 349.52 788.674 361.94C788.674 374.24 783.154 383 770.614 383H760.534V341H770.614ZM770.314 378.08C778.654 378.08 783.154 372.62 783.154 361.94C783.154 352.88 780.214 345.92 770.314 345.92H765.994V378.08H770.314ZM810.13 383.6C801.13 383.6 795.25 375.8 795.25 362C795.25 348.5 801.01 340.4 810.13 340.4C819.13 340.4 824.95 348.5 824.95 362C824.95 375.5 819.13 383.6 810.13 383.6ZM810.13 378.56C815.89 378.56 819.49 372.8 819.49 362C819.49 351.2 815.83 345.44 810.13 345.44C804.31 345.44 800.65 351.2 800.65 362C800.65 372.8 804.31 378.56 810.13 378.56ZM859.607 341V383H854.687V351.32H854.267L848.627 366.5H843.587L837.827 351.32H837.407V383H832.487V341H838.907L845.867 360.14H846.287L853.247 341H859.607ZM895.643 372.08C895.643 379.88 889.643 383.6 881.843 383.6C873.203 383.6 867.923 378.86 867.383 371H872.783C873.443 376.1 876.623 378.86 881.903 378.86C886.283 378.86 890.243 376.94 890.243 372.2C890.243 366.8 885.443 365.24 881.243 363.92L879.683 363.44C874.763 361.82 868.703 359.3 868.703 351.98C868.703 344.9 874.523 340.4 882.083 340.4C890.063 340.4 895.283 345.44 895.643 352.28H890.483C890.003 348.32 887.243 345.14 882.143 345.14C877.343 345.14 874.103 347.96 874.103 351.86C874.103 356.48 878.663 357.74 882.323 358.94L883.703 359.42C887.843 360.8 895.643 363.32 895.643 372.08Z" fill="white"/>
</svg>
